<svg width="47" height="47" viewBox="0 0 47 47" fill="none" xmlns="http://www.w3.org/2000/svg">
<path d="M23.5 0C17.013 0 11.4746 2.29492 6.88477 6.88477C2.29492 11.4746 0 17.013 0 23.5C0 29.987 2.29492 35.5254 6.88477 40.1152C11.4746 44.7051 17.013 47 23.5 47C29.987 47 35.5254 44.7051 40.1152 40.1152C44.7051 35.5254 47 29.987 47 23.5C47 17.013 44.7051 11.4746 40.1152 6.88477C35.5254 2.29492 29.987 0 23.5 0ZM23.5 43.0527C18.1146 43.0527 13.5094 41.1403 9.68457 37.3154C5.8597 33.4906 3.94727 28.8854 3.94727 23.5C3.94727 18.1146 5.8597 13.5094 9.68457 9.68457C13.5094 5.8597 18.1146 3.94727 23.5 3.94727C28.8854 3.94727 33.4906 5.8597 37.3154 9.68457C41.1403 13.5094 43.0527 18.1146 43.0527 23.5C43.0527 28.8854 41.1403 33.4906 37.3154 37.3154C33.4906 41.1403 28.8854 43.0527 23.5 43.0527ZM23.5 9.82227C19.7057 9.82227 16.4775 11.1533 13.8154 13.8154C11.1533 16.4775 9.82227 19.7057 9.82227 23.5C9.82227 27.2943 11.1533 30.5225 13.8154 33.1846C16.4775 35.8467 19.7057 37.1777 23.5 37.1777C27.2943 37.1777 30.5225 35.8467 33.1846 33.1846C35.8467 30.5225 37.1777 27.2943 37.1777 23.5C37.1777 19.7057 35.8467 16.4775 33.1846 13.8154C30.5225 11.1533 27.2943 9.82227 23.5 9.82227ZM23.5 33.3223C20.7461 33.3223 18.4206 32.3737 16.5234 30.4766C14.6263 28.5794 13.6777 26.2539 13.6777 23.5C13.6777 20.7461 14.6263 18.4206 16.5234 16.5234C18.4206 14.6263 20.7461 13.6777 23.5 13.6777C26.2539 13.6777 28.5794 14.6263 30.4766 16.5234C32.3737 18.4206 33.3223 20.7461 33.3223 23.5C33.3223 26.2539 32.3737 28.5794 30.4766 30.4766C28.5794 32.3737 26.2539 33.3223 23.5 33.3223ZM27.4473 23.5C27.4473 24.6016 27.0648 25.5348 26.2998 26.2998C25.5348 27.0648 24.6016 27.4473 23.5 27.4473C22.3984 27.4473 21.4652 27.0648 20.7002 26.2998C19.9352 25.5348 19.5527 24.6016 19.5527 23.5C19.5527 22.3984 19.9352 21.4652 20.7002 20.7002C21.4652 19.9352 22.3984 19.5527 23.5 19.5527C24.6016 19.5527 25.5348 19.9352 26.2998 20.7002C27.0648 21.4652 27.4473 22.3984 27.4473 23.5Z" fill="#F46A14"/>
</svg>
