<svg width="66" height="66" viewBox="0 0 66 66" fill="none" xmlns="http://www.w3.org/2000/svg">
<path d="M-1.4281e-06 32.6708C-1.2227e-06 39.1325 1.91612 45.4491 5.50606 50.8218C9.096 56.1945 14.1985 60.3821 20.1684 62.8549C26.1382 65.3277 32.7073 65.9746 39.0448 64.714C45.3824 63.4534 51.2038 60.3418 55.7729 55.7727C60.342 51.2036 63.4537 45.3821 64.7143 39.0446C65.9749 32.707 65.3279 26.138 62.8551 20.1681C60.3823 14.1983 56.1948 9.09576 50.8221 5.50582C45.4493 1.91588 39.1327 -0.000238062 32.671 -0.000237779L32.671 24.9678C34.1945 24.9678 35.6838 25.4196 36.9506 26.266C38.2173 27.1124 39.2046 28.3154 39.7876 29.723C40.3707 31.1305 40.5232 32.6793 40.226 34.1736C39.9288 35.6678 39.1951 37.0403 38.1178 38.1176C37.0406 39.1949 35.668 39.9285 34.1738 40.2257C32.6796 40.523 31.1307 40.3704 29.7232 39.7874C28.3157 39.2044 27.1126 38.2171 26.2662 36.9503C25.4198 35.6836 24.968 34.1943 24.968 32.6708L-1.4281e-06 32.6708Z" fill="#F5B633"/>
</svg>
