<svg width="51" height="52" viewBox="0 0 51 52" fill="none" xmlns="http://www.w3.org/2000/svg">
<path d="M18.6319 50.862C23.5035 52.1674 28.6527 51.9988 33.4285 50.3776C38.2043 48.7565 42.392 45.7556 45.4623 41.7543C48.5325 37.7531 50.3473 32.9313 50.6772 27.8987C51.007 22.8661 49.8371 17.8487 47.3154 13.4809C44.7937 9.11319 41.0335 5.59131 36.5101 3.36066C31.9868 1.13002 26.9036 0.290774 21.9034 0.949072C16.9031 1.60737 12.2103 3.73364 8.41846 7.059C4.62662 10.3844 1.90601 14.7595 0.600672 19.631L9.12449 21.915C9.9781 18.7293 11.7572 15.8682 14.2369 13.6936C16.7165 11.519 19.7853 10.1286 23.0552 9.69808C26.3251 9.26759 29.6492 9.8164 32.6072 11.2751C35.5651 12.7338 38.0241 15.0369 39.6732 17.8932C41.3222 20.7494 42.0873 24.0305 41.8716 27.3215C41.6559 30.6126 40.4691 33.7658 38.4613 36.3823C36.4536 38.9989 33.715 40.9613 30.5919 42.0215C27.4689 43.0816 24.1016 43.1918 20.9158 42.3382L18.6319 50.862Z" fill="#6852D9"/>
</svg>
