<svg width="28" height="28" viewBox="0 0 28 28" fill="none" xmlns="http://www.w3.org/2000/svg">
<path d="M17.6953 27.0825C20.2315 26.4029 22.5092 24.9865 24.2404 23.0124C25.9717 21.0383 27.0786 18.5952 27.4213 15.992C27.7641 13.3888 27.3272 10.7424 26.1658 8.38754C25.0045 6.03265 23.171 4.075 20.8971 2.76217C18.6232 1.44933 16.0111 0.840269 13.391 1.012C10.771 1.18372 8.26069 2.12853 6.17761 3.72694C4.09452 5.32535 2.5322 7.50556 1.68821 9.99189C0.844212 12.4782 0.756453 15.159 1.43603 17.6952L5.87363 16.5061C5.42923 14.8476 5.48662 13.0945 6.03854 11.4686C6.59046 9.84272 7.61213 8.41698 8.97435 7.37172C10.3366 6.32646 11.9781 5.70861 13.6915 5.59631C15.4049 5.48401 17.113 5.8823 18.6 6.74082C20.087 7.59933 21.2861 8.87952 22.0455 10.4195C22.8049 11.9594 23.0906 13.69 22.8665 15.3924C22.6424 17.0947 21.9185 18.6924 20.7864 19.9833C19.6543 21.2742 18.1648 22.2005 16.5062 22.6449L17.6953 27.0825Z" fill="#38A1FF"/>
</svg>
