<svg width="67" height="67" viewBox="0 0 67 67" fill="none" xmlns="http://www.w3.org/2000/svg">
<path d="M16.5784 61.6577C22.2308 64.9211 28.7239 66.4351 35.2367 66.0082C41.7495 65.5814 47.9895 63.2328 53.1675 59.2595C58.3456 55.2863 62.2291 49.8668 64.3271 43.6864C66.4251 37.506 66.6432 30.8422 64.954 24.5379C63.2647 18.2335 59.7439 12.5716 54.8368 8.26817C49.9297 3.96476 43.8567 1.21312 37.3858 0.361201C30.9148 -0.490714 24.3366 0.59536 18.4829 3.48208C12.6292 6.36881 7.76296 10.9265 4.49957 16.5789L33.0784 33.0789L16.5784 61.6577Z" fill="#6852D9"/>
<path d="M49.5784 4.50004C43.926 1.23665 37.4329 -0.277335 30.9201 0.149537C24.4073 0.576409 18.1673 2.92497 12.9893 6.89822C7.81124 10.8715 3.92768 16.291 1.82971 22.4714C-0.26825 28.6518 -0.486399 35.3155 1.20286 41.6199C2.89211 47.9243 6.4129 53.5862 11.32 57.8896C16.2271 62.193 22.3001 64.9446 28.771 65.7966C35.242 66.6485 41.8202 65.5624 47.6739 62.6757C53.5276 59.789 58.3939 55.2312 61.6572 49.5789L39.8166 36.9691C39.0471 38.3018 37.8998 39.3764 36.5197 40.057C35.1395 40.7376 33.5885 40.9937 32.0628 40.7929C30.5372 40.592 29.1053 39.9432 27.9483 38.9286C26.7914 37.914 25.9613 36.579 25.563 35.0926C25.1647 33.6062 25.2161 32.0351 25.7108 30.5779C26.2054 29.1207 27.1211 27.843 28.3419 26.9062C29.5628 25.9694 31.034 25.4156 32.5695 25.315C34.1051 25.2144 35.636 25.5713 36.9687 26.3407L49.5784 4.50004Z" fill="#F5B633"/>
</svg>
