<svg width="66" height="66" viewBox="0 0 66 66" fill="none" xmlns="http://www.w3.org/2000/svg">
<path d="M32.6713 0C26.2096 -7.70552e-08 19.893 1.91612 14.5203 5.50606C9.14753 9.096 4.96001 14.1985 2.48722 20.1684C0.0144235 26.1382 -0.632572 32.7073 0.628047 39.0448C1.88866 45.3824 5.00028 51.2038 9.5694 55.7729C14.1385 60.342 19.9599 63.4537 26.2975 64.7143C32.6351 65.9749 39.2041 65.3279 45.174 62.8551C51.1438 60.3823 56.2463 56.1948 59.8363 50.8221C63.4262 45.4493 65.3423 39.1327 65.3423 32.671H40.3743C40.3743 34.1945 39.9225 35.6838 39.0761 36.9506C38.2297 38.2173 37.0266 39.2046 35.6191 39.7876C34.2116 40.3707 32.6628 40.5232 31.1685 40.226C29.6743 39.9288 28.3018 39.1951 27.2245 38.1178C26.1472 37.0406 25.4136 35.668 25.1163 34.1738C24.8191 32.6796 24.9717 31.1308 25.5547 29.7232C26.1377 28.3157 27.125 27.1126 28.3918 26.2662C29.6585 25.4198 31.1478 24.968 32.6713 24.968V0Z" fill="#F5B633"/>
</svg>
