<svg width="438" height="438" viewBox="0 0 438 438" fill="none" xmlns="http://www.w3.org/2000/svg">
<path fill-rule="evenodd" clip-rule="evenodd" d="M436.036 191.423C430.184 144.876 409.388 99.849 373.646 64.1076C364.368 54.8291 354.464 46.5578 344.069 39.2937L344.069 191.423L436.036 191.423ZM320.66 202.831L320.66 142.261L320.657 142.261L297.248 142.261L297.248 200.493C297.248 207.119 291.877 212.491 285.251 212.491C278.625 212.491 273.254 207.119 273.254 200.493L273.254 189.08L207.122 189.08C200.658 189.08 195.418 183.84 195.418 177.376C195.418 170.911 200.658 165.671 207.122 165.671L273.254 165.671L273.254 142.261L13.7905 142.261C-11.1263 209.082 -2.27861 285.633 40.3335 345.545L40.3335 216.584C40.3334 210.119 45.5738 204.879 52.0381 204.879C58.5024 204.879 63.7428 210.119 63.7428 216.584L63.7428 373.281C63.8641 373.403 63.9857 373.525 64.1074 373.646C88.7148 398.254 117.724 415.777 148.6 426.216L148.6 224.192C148.6 217.728 153.84 212.487 160.305 212.487C166.769 212.487 172.009 217.728 172.009 224.192L172.009 285.06L206.897 285.06C206.973 285.058 207.048 285.057 207.124 285.057C210.761 285.057 214.009 286.716 216.156 289.317C216.395 289.606 216.62 289.907 216.83 290.218C218.093 292.086 218.831 294.339 218.831 296.764C218.831 296.829 218.83 296.893 218.829 296.957L218.829 437.754C226.644 437.756 234.46 437.342 242.239 436.511L242.239 250.137L242.238 250.071L242.238 250.009L242.237 249.944C242.237 245.441 244.78 241.532 248.508 239.574C248.794 239.424 249.087 239.285 249.386 239.159C250.787 238.566 252.327 238.238 253.944 238.238C253.987 238.238 254.03 238.239 254.073 238.239L434.194 238.239C435.116 238.239 436.013 238.346 436.874 238.547C437.581 230.661 437.862 222.744 437.717 214.833L332.361 214.833C325.897 214.833 320.656 209.592 320.656 203.128C320.656 203.029 320.658 202.93 320.66 202.831ZM195.42 308.469L172.009 308.469L172.009 432.705C179.751 434.394 187.567 435.66 195.42 436.501L195.42 308.469ZM291.712 425.334C283.156 428.346 274.45 430.81 265.648 432.726L265.648 261.648L433.558 261.648C425.421 302.686 405.45 341.842 373.646 373.646C355.34 391.953 334.597 406.339 312.462 416.804L312.462 308.467L410.196 308.467C416.66 308.467 421.9 303.227 421.9 296.762C421.9 290.298 416.66 285.058 410.196 285.058L300.758 285.058L300.757 285.058C299.949 285.058 299.16 285.14 298.398 285.296C293.065 286.387 289.053 291.106 289.053 296.762C289.053 296.802 289.053 296.842 289.053 296.882L289.053 417.906C289.053 420.726 290.051 423.313 291.712 425.334ZM320.657 118.851L24.1262 118.851C31.6417 104.227 40.9129 90.272 51.9399 77.2989L292.924 77.2989C292.965 77.2997 293.006 77.3002 293.046 77.3006C293.08 77.3008 293.114 77.301 293.148 77.301C294.597 77.301 295.986 77.0374 297.267 76.5555C301.702 74.8903 304.858 70.6108 304.858 65.5942C304.858 65.4724 304.856 65.3511 304.852 65.2302L304.852 17.5294C310.199 19.8103 315.473 22.3137 320.66 25.0397L320.66 118.851L320.657 118.851ZM281.443 9.08889C211.428 -11.7246 133.051 3.20894 75.0364 53.8896L281.443 53.8896L281.443 9.08889ZM103.535 165.671C102.734 165.671 101.952 165.751 101.197 165.905C100.441 165.751 99.6592 165.671 98.8585 165.671C92.3942 165.671 87.1539 170.911 87.1539 177.376L87.1539 369.332C87.1539 375.796 92.3942 381.037 98.8585 381.037C105.323 381.037 110.563 375.796 110.563 369.332L110.563 189.08L160.302 189.08C166.767 189.08 172.007 183.84 172.007 177.376C172.007 170.911 166.767 165.671 160.302 165.671L103.535 165.671Z" fill="#FFC754"/>
</svg>
