<svg width="43" height="50" viewBox="0 0 43 50" fill="none" xmlns="http://www.w3.org/2000/svg">
<path d="M36.3451 49.4695C39.3732 46.1073 41.3746 41.4573 42.0766 36.1532C42.7785 30.849 42.147 25.1487 40.2679 19.8289C38.3889 14.5091 35.3537 9.82863 31.576 6.42518C27.7983 3.02173 23.4618 1.06086 19.1574 0.809776C14.853 0.558689 10.7901 2.02959 7.52223 5.02205C4.25436 8.01452 1.9405 12.383 0.895941 17.5322C-0.148619 22.6815 0.126926 28.3611 1.68503 33.797C3.24313 39.233 6.008 44.161 9.60292 47.9096L13.3893 41.431C10.9566 38.8944 9.08561 35.5596 8.03125 31.8811C6.97688 28.2025 6.79042 24.3592 7.49727 20.8747C8.20412 17.3902 9.76991 14.434 11.9813 12.409C14.1926 10.384 16.942 9.38869 19.8548 9.5586C22.7676 9.72851 25.7021 11.0554 28.2585 13.3585C30.8148 15.6616 32.8687 18.8289 34.1403 22.4288C35.4118 26.0287 35.8392 29.8862 35.3642 33.4755C34.8891 37.0648 33.5348 40.2114 31.4857 42.4866L36.3451 49.4695Z" fill="#38A1FF"/>
</svg>
