<svg width="656" height="583" viewBox="0 0 656 583" fill="none" xmlns="http://www.w3.org/2000/svg">
<path d="M-3.05176e-05 483.349C-3.05176e-05 430.689 42.6892 388 95.3491 388H267V582H-3.05176e-05V483.349Z" fill="#6197FF"/>
<path d="M656 487.651C656 540.311 613.311 583 560.651 583L461 583L461 389L656 389L656 487.651Z" fill="#6852D9"/>
<path d="M556.349 194C503.689 194 461 151.311 461 98.6509L461 1.15633e-05L656 3.03727e-06L656 194L556.349 194Z" fill="#6197FF"/>
<rect x="89" y="194" width="178" height="194" fill="#6852D9"/>
<path d="M268 194H359C415.885 194 462 240.115 462 297V388H371C314.115 388 268 341.885 268 285V194Z" fill="white"/>
<path d="M89 0H170C223.572 0 267 43.4284 267 97V97V97C267 150.572 223.572 194 170 194H89V0Z" fill="#EE6881"/>
<path d="M142.295 130.884C149.078 137.667 157.72 142.286 167.128 144.157C176.536 146.029 186.288 145.068 195.15 141.398C204.012 137.727 211.587 131.51 216.916 123.535C222.245 115.559 225.09 106.182 225.09 96.5894C225.09 86.997 222.245 77.62 216.916 69.6442C211.587 61.6684 204.012 55.452 195.15 51.7812C186.288 48.1103 176.536 47.1499 167.128 49.0213C157.72 50.8926 149.078 55.5118 142.295 62.2947C142.295 62.2947 176.59 69.6442 176.59 96.5894C176.59 123.535 142.295 130.884 142.295 130.884Z" fill="white"/>
</svg>
