<svg width="52" height="52" viewBox="0 0 52 52" fill="none" xmlns="http://www.w3.org/2000/svg">
<rect x="0.05" y="0.05" width="51.9" height="51.9" fill="white" stroke="black" stroke-width="0.1"/>
<rect width="13" height="4" transform="matrix(0.707107 -0.707107 0.711297 0.702892 10.0095 19.0181)" fill="#FFC754"/>
<rect width="10" height="3" transform="matrix(0.760635 0.64918 -0.652259 0.757996 23.957 10.0001)" fill="#FFC754"/>
<rect width="11" height="3" transform="matrix(0.709205 -0.705002 0.709205 0.705002 34 17.7552)" fill="#FFC754"/>
<circle cx="8.5" cy="22.5001" r="6.5" fill="#FFC754"/>
<circle r="4.68825" transform="matrix(0.98771 0.156299 -0.158121 0.98742 21.5627 11.2906)" fill="#6197FF" stroke="#6197FF" stroke-width="1.62349"/>
<circle r="4.68825" transform="matrix(0.98771 0.156299 -0.158121 0.98742 33.5627 19.2906)" fill="#6852D9" stroke="#6852D9" stroke-width="1.62349"/>
<circle r="4.68825" transform="matrix(0.98771 0.156299 -0.158121 0.98742 44.5627 9.29057)" fill="#F46A14" stroke="#F46A14" stroke-width="1.62349"/>
<path d="M11.192 42.0001L8.384 33.6001H9.62L12.2 41.3521H11.576L14.252 33.6001H15.356L17.972 41.3521H17.372L19.988 33.6001H21.128L18.32 42.0001H17.06L14.612 34.8121H14.936L12.476 42.0001H11.192ZM26.2699 42.0961C25.6299 42.0961 25.0379 41.9921 24.4939 41.7841C23.9579 41.5681 23.4899 41.2681 23.0899 40.8841C22.6979 40.4921 22.3899 40.0361 22.1659 39.5161C21.9419 38.9961 21.8299 38.4241 21.8299 37.8001C21.8299 37.1761 21.9419 36.6041 22.1659 36.0841C22.3899 35.5641 22.7019 35.1121 23.1019 34.7281C23.5019 34.3361 23.9699 34.0361 24.5059 33.8281C25.0499 33.6121 25.6419 33.5041 26.2819 33.5041C26.9299 33.5041 27.5259 33.6161 28.0699 33.8401C28.6219 34.0561 29.0899 34.3801 29.4739 34.8121L28.6939 35.5681C28.3739 35.2321 28.0139 34.9841 27.6139 34.8241C27.2139 34.6561 26.7859 34.5721 26.3299 34.5721C25.8579 34.5721 25.4179 34.6521 25.0099 34.8121C24.6099 34.9721 24.2619 35.1961 23.9659 35.4841C23.6699 35.7721 23.4379 36.1161 23.2699 36.5161C23.1099 36.9081 23.0299 37.3361 23.0299 37.8001C23.0299 38.2641 23.1099 38.6961 23.2699 39.0961C23.4379 39.4881 23.6699 39.8281 23.9659 40.1161C24.2619 40.4041 24.6099 40.6281 25.0099 40.7881C25.4179 40.9481 25.8579 41.0281 26.3299 41.0281C26.7859 41.0281 27.2139 40.9481 27.6139 40.7881C28.0139 40.6201 28.3739 40.3641 28.6939 40.0201L29.4739 40.7761C29.0899 41.2081 28.6219 41.5361 28.0699 41.7601C27.5259 41.9841 26.9259 42.0961 26.2699 42.0961ZM31.1858 42.0001V33.6001H34.7258C35.6218 33.6001 36.4098 33.7761 37.0898 34.1281C37.7778 34.4801 38.3098 34.9721 38.6858 35.6041C39.0698 36.2361 39.2618 36.9681 39.2618 37.8001C39.2618 38.6321 39.0698 39.3641 38.6858 39.9961C38.3098 40.6281 37.7778 41.1201 37.0898 41.4721C36.4098 41.8241 35.6218 42.0001 34.7258 42.0001H31.1858ZM32.3858 40.9561H34.6538C35.3498 40.9561 35.9498 40.8241 36.4538 40.5601C36.9658 40.2961 37.3618 39.9281 37.6418 39.4561C37.9218 38.9761 38.0618 38.4241 38.0618 37.8001C38.0618 37.1681 37.9218 36.6161 37.6418 36.1441C37.3618 35.6721 36.9658 35.3041 36.4538 35.0401C35.9498 34.7761 35.3498 34.6441 34.6538 34.6441H32.3858V40.9561ZM42.1918 37.2241H46.5118V38.2441H42.1918V37.2241ZM42.2998 40.9561H47.1958V42.0001H41.0998V33.6001H47.0278V34.6441H42.2998V40.9561Z" fill="#616161"/>
<path d="M20.863 49.046C20.5257 49.046 20.2037 49 19.897 48.908C19.5954 48.816 19.3578 48.7036 19.184 48.5707L19.4907 47.988C19.6644 48.1056 19.8791 48.2052 20.1347 48.287C20.3902 48.3688 20.6509 48.4097 20.9167 48.4097C21.2591 48.4097 21.5044 48.3611 21.6527 48.264C21.806 48.1669 21.8827 48.0314 21.8827 47.8577C21.8827 47.7299 21.8367 47.6302 21.7447 47.5587C21.6527 47.4871 21.53 47.4334 21.3767 47.3977C21.2284 47.3619 21.0623 47.3312 20.8783 47.3057C20.6943 47.275 20.5103 47.2392 20.3263 47.1983C20.1423 47.1523 19.9737 47.091 19.8203 47.0143C19.667 46.9326 19.5443 46.8227 19.4523 46.6847C19.3603 46.5416 19.3143 46.3524 19.3143 46.1173C19.3143 45.872 19.3833 45.6573 19.5213 45.4733C19.6593 45.2893 19.8536 45.1488 20.104 45.0517C20.3596 44.9494 20.6611 44.8983 21.0087 44.8983C21.2744 44.8983 21.5428 44.9316 21.8137 44.998C22.0897 45.0593 22.3146 45.1488 22.4883 45.2663L22.174 45.849C21.99 45.7263 21.7983 45.642 21.599 45.596C21.3997 45.55 21.2003 45.527 21.001 45.527C20.679 45.527 20.4388 45.5807 20.2803 45.688C20.1219 45.7902 20.0427 45.9231 20.0427 46.0867C20.0427 46.2247 20.0887 46.332 20.1807 46.4087C20.2778 46.4802 20.4004 46.5364 20.5487 46.5773C20.702 46.6182 20.8707 46.654 21.0547 46.6847C21.2387 46.7102 21.4227 46.746 21.6067 46.792C21.7907 46.8329 21.9568 46.8917 22.105 46.9683C22.2583 47.045 22.381 47.1523 22.473 47.2903C22.5701 47.4283 22.6187 47.6123 22.6187 47.8423C22.6187 48.0877 22.5471 48.2998 22.404 48.4787C22.2609 48.6576 22.059 48.7981 21.7983 48.9003C21.5377 48.9974 21.2259 49.046 20.863 49.046ZM25.7005 49.046C25.2916 49.046 24.9747 48.9361 24.7498 48.7163C24.5249 48.4966 24.4125 48.1822 24.4125 47.7733V44.0473H25.1485V47.7427C25.1485 47.9624 25.2022 48.1311 25.3095 48.2487C25.4219 48.3662 25.5804 48.425 25.7848 48.425C26.0148 48.425 26.2065 48.3611 26.3598 48.2333L26.5898 48.7623C26.4774 48.8594 26.3419 48.931 26.1835 48.977C26.0302 49.023 25.8692 49.046 25.7005 49.046ZM23.7225 45.5423V44.9367H26.3138V45.5423H23.7225ZM29.956 49.046C29.6084 49.046 29.3017 48.9821 29.036 48.8543C28.7753 48.7266 28.5709 48.5323 28.4226 48.2717C28.2795 48.0059 28.208 47.6737 28.208 47.275V44.9367H28.944V47.1907C28.944 47.5893 29.0385 47.8883 29.2276 48.0877C29.4219 48.287 29.6927 48.3867 30.0403 48.3867C30.2959 48.3867 30.5182 48.3356 30.7073 48.2333C30.8964 48.126 31.0421 47.9727 31.1443 47.7733C31.2465 47.5689 31.2976 47.3236 31.2976 47.0373V44.9367H32.0336V49H31.336V47.9037L31.451 48.195C31.3181 48.4659 31.1187 48.6754 30.853 48.8237C30.5872 48.9719 30.2882 49.046 29.956 49.046ZM35.8804 49.046C35.4869 49.046 35.1342 48.9591 34.8224 48.7853C34.5158 48.6116 34.273 48.3688 34.0941 48.057C33.9152 47.7452 33.8258 47.3823 33.8258 46.9683C33.8258 46.5543 33.9152 46.194 34.0941 45.8873C34.273 45.5756 34.5158 45.3328 34.8224 45.159C35.1342 44.9852 35.4869 44.8983 35.8804 44.8983C36.2229 44.8983 36.5321 44.975 36.8081 45.1283C37.0841 45.2817 37.3039 45.5117 37.4674 45.8183C37.6361 46.125 37.7204 46.5083 37.7204 46.9683C37.7204 47.4283 37.6387 47.8117 37.4751 48.1183C37.3167 48.425 37.0994 48.6576 36.8234 48.816C36.5474 48.9693 36.2331 49.046 35.8804 49.046ZM35.9418 48.402C36.1973 48.402 36.4273 48.3432 36.6318 48.2257C36.8413 48.1081 37.0049 47.942 37.1224 47.7273C37.2451 47.5076 37.3064 47.2546 37.3064 46.9683C37.3064 46.677 37.2451 46.4266 37.1224 46.217C37.0049 46.0023 36.8413 45.8362 36.6318 45.7187C36.4273 45.6011 36.1973 45.5423 35.9418 45.5423C35.6811 45.5423 35.4486 45.6011 35.2441 45.7187C35.0397 45.8362 34.8761 46.0023 34.7534 46.217C34.6308 46.4266 34.5694 46.677 34.5694 46.9683C34.5694 47.2546 34.6308 47.5076 34.7534 47.7273C34.8761 47.942 35.0397 48.1081 35.2441 48.2257C35.4486 48.3432 35.6811 48.402 35.9418 48.402ZM37.3294 49V47.9037L37.3754 46.9607L37.2988 46.0177V43.3113H38.0348V49H37.3294ZM40.194 49V44.9367H40.93V49H40.194ZM40.562 44.1547C40.4189 44.1547 40.2988 44.1087 40.2017 44.0167C40.1097 43.9247 40.0637 43.8122 40.0637 43.6793C40.0637 43.5413 40.1097 43.4263 40.2017 43.3343C40.2988 43.2423 40.4189 43.1963 40.562 43.1963C40.7051 43.1963 40.8227 43.2423 40.9147 43.3343C41.0118 43.4212 41.0604 43.5311 41.0604 43.664C41.0604 43.802 41.0144 43.9196 40.9224 44.0167C40.8304 44.1087 40.7102 44.1547 40.562 44.1547ZM44.8423 49.046C44.4334 49.046 44.0705 48.9566 43.7536 48.7777C43.4367 48.5988 43.1863 48.3534 43.0023 48.0417C42.8183 47.7248 42.7263 47.367 42.7263 46.9683C42.7263 46.5646 42.8183 46.2068 43.0023 45.895C43.1863 45.5832 43.4367 45.3404 43.7536 45.1667C44.0705 44.9878 44.4334 44.8983 44.8423 44.8983C45.2461 44.8983 45.6064 44.9878 45.9233 45.1667C46.2453 45.3404 46.4957 45.5832 46.6746 45.895C46.8586 46.2017 46.9506 46.5594 46.9506 46.9683C46.9506 47.3721 46.8586 47.7299 46.6746 48.0417C46.4957 48.3534 46.2453 48.5988 45.9233 48.7777C45.6064 48.9566 45.2461 49.046 44.8423 49.046ZM44.8423 48.402C45.103 48.402 45.3355 48.3432 45.54 48.2257C45.7495 48.1081 45.9131 47.942 46.0306 47.7273C46.1482 47.5076 46.207 47.2546 46.207 46.9683C46.207 46.677 46.1482 46.4266 46.0306 46.217C45.9131 46.0023 45.7495 45.8362 45.54 45.7187C45.3355 45.6011 45.103 45.5423 44.8423 45.5423C44.5816 45.5423 44.3491 45.6011 44.1446 45.7187C43.9402 45.8362 43.7766 46.0023 43.654 46.217C43.5313 46.4266 43.47 46.677 43.47 46.9683C43.47 47.2546 43.5313 47.5076 43.654 47.7273C43.7766 47.942 43.9402 48.1081 44.1446 48.2257C44.3491 48.3432 44.5816 48.402 44.8423 48.402Z" fill="#616161"/>
<ellipse cx="49.0952" cy="41.0698" rx="1.09524" ry="1.06977" fill="#616161"/>
</svg>
