<svg width="104" height="104" viewBox="0 0 104 104" fill="none" xmlns="http://www.w3.org/2000/svg">
<rect x="0.1" y="0.1" width="103.8" height="103.8" fill="white" stroke="black" stroke-width="0.2"/>
<rect width="26" height="8" transform="matrix(0.707107 -0.707107 0.711297 0.702892 20.0195 38.0356)" fill="#FFC754"/>
<rect width="20" height="6" transform="matrix(0.760635 0.64918 -0.652259 0.757996 47.9141 20)" fill="#FFC754"/>
<rect width="22" height="6" transform="matrix(0.709205 -0.705002 0.709205 0.705002 68 35.5103)" fill="#FFC754"/>
<circle cx="17" cy="45" r="13" fill="#FFC754"/>
<circle r="9.37651" transform="matrix(0.98771 0.156299 -0.158121 0.98742 43.1255 22.5809)" fill="#6197FF" stroke="#6197FF" stroke-width="3.24699"/>
<circle r="9.37651" transform="matrix(0.98771 0.156299 -0.158121 0.98742 67.1255 38.5809)" fill="#6852D9" stroke="#6852D9" stroke-width="3.24699"/>
<circle r="9.37651" transform="matrix(0.98771 0.156299 -0.158121 0.98742 89.1255 18.5809)" fill="#F46A14" stroke="#F46A14" stroke-width="3.24699"/>
<path d="M22.384 83L16.768 66.2H19.24L24.4 81.704H23.152L28.504 66.2H30.712L35.944 81.704H34.744L39.976 66.2H42.256L36.64 83H34.12L29.224 68.624H29.872L24.952 83H22.384ZM52.5398 83.192C51.2598 83.192 50.0758 82.984 48.9878 82.568C47.9158 82.136 46.9798 81.536 46.1798 80.768C45.3958 79.984 44.7798 79.072 44.3318 78.032C43.8838 76.992 43.6598 75.848 43.6598 74.6C43.6598 73.352 43.8838 72.208 44.3318 71.168C44.7798 70.128 45.4038 69.224 46.2038 68.456C47.0038 67.672 47.9398 67.072 49.0118 66.656C50.0998 66.224 51.2838 66.008 52.5638 66.008C53.8598 66.008 55.0518 66.232 56.1398 66.68C57.2438 67.112 58.1798 67.76 58.9478 68.624L57.3878 70.136C56.7478 69.464 56.0278 68.968 55.2278 68.648C54.4278 68.312 53.5718 68.144 52.6598 68.144C51.7158 68.144 50.8358 68.304 50.0198 68.624C49.2198 68.944 48.5238 69.392 47.9318 69.968C47.3398 70.544 46.8758 71.232 46.5398 72.032C46.2198 72.816 46.0598 73.672 46.0598 74.6C46.0598 75.528 46.2198 76.392 46.5398 77.192C46.8758 77.976 47.3398 78.656 47.9318 79.232C48.5238 79.808 49.2198 80.256 50.0198 80.576C50.8358 80.896 51.7158 81.056 52.6598 81.056C53.5718 81.056 54.4278 80.896 55.2278 80.576C56.0278 80.24 56.7478 79.728 57.3878 79.04L58.9478 80.552C58.1798 81.416 57.2438 82.072 56.1398 82.52C55.0518 82.968 53.8518 83.192 52.5398 83.192ZM62.3716 83V66.2H69.4516C71.2436 66.2 72.8196 66.552 74.1796 67.256C75.5556 67.96 76.6196 68.944 77.3716 70.208C78.1396 71.472 78.5236 72.936 78.5236 74.6C78.5236 76.264 78.1396 77.728 77.3716 78.992C76.6196 80.256 75.5556 81.24 74.1796 81.944C72.8196 82.648 71.2436 83 69.4516 83H62.3716ZM64.7716 80.912H69.3076C70.6996 80.912 71.8996 80.648 72.9076 80.12C73.9316 79.592 74.7236 78.856 75.2836 77.912C75.8436 76.952 76.1236 75.848 76.1236 74.6C76.1236 73.336 75.8436 72.232 75.2836 71.288C74.7236 70.344 73.9316 69.608 72.9076 69.08C71.8996 68.552 70.6996 68.288 69.3076 68.288H64.7716V80.912ZM84.3837 73.448H93.0237V75.488H84.3837V73.448ZM84.5997 80.912H94.3917V83H82.1997V66.2H94.0557V68.288H84.5997V80.912Z" fill="#616161"/>
<path d="M41.726 99.092C41.0513 99.092 40.4073 99 39.794 98.816C39.1909 98.632 38.7156 98.4071 38.368 98.1413L38.9813 96.976C39.3289 97.2111 39.7582 97.4104 40.2693 97.574C40.7804 97.7376 41.3018 97.8193 41.8333 97.8193C42.5182 97.8193 43.0089 97.7222 43.3053 97.528C43.612 97.3338 43.7653 97.0629 43.7653 96.7153C43.7653 96.4598 43.6733 96.2604 43.4893 96.1173C43.3053 95.9742 43.06 95.8669 42.7533 95.7953C42.4569 95.7238 42.1247 95.6624 41.7567 95.6113C41.3887 95.55 41.0207 95.4784 40.6527 95.3967C40.2847 95.3047 39.9473 95.182 39.6407 95.0287C39.334 94.8651 39.0887 94.6453 38.9047 94.3693C38.7207 94.0831 38.6287 93.7049 38.6287 93.2347C38.6287 92.744 38.7667 92.3147 39.0427 91.9467C39.3187 91.5787 39.7071 91.2976 40.208 91.1033C40.7191 90.8989 41.3222 90.7967 42.0173 90.7967C42.5489 90.7967 43.0856 90.8631 43.6273 90.996C44.1793 91.1187 44.6291 91.2976 44.9767 91.5327L44.348 92.698C43.98 92.4527 43.5967 92.284 43.198 92.192C42.7993 92.1 42.4007 92.054 42.002 92.054C41.358 92.054 40.8776 92.1613 40.5607 92.376C40.2438 92.5804 40.0853 92.8462 40.0853 93.1733C40.0853 93.4493 40.1773 93.664 40.3613 93.8173C40.5556 93.9604 40.8009 94.0729 41.0973 94.1547C41.404 94.2364 41.7413 94.308 42.1093 94.3693C42.4773 94.4204 42.8453 94.492 43.2133 94.584C43.5813 94.6658 43.9136 94.7833 44.21 94.9367C44.5167 95.09 44.762 95.3047 44.946 95.5807C45.1402 95.8567 45.2373 96.2247 45.2373 96.6847C45.2373 97.1753 45.0942 97.5996 44.808 97.9573C44.5218 98.3151 44.118 98.5962 43.5967 98.8007C43.0753 98.9949 42.4518 99.092 41.726 99.092ZM51.401 99.092C50.5832 99.092 49.9494 98.8722 49.4996 98.4327C49.0499 97.9931 48.825 97.3644 48.825 96.5467V89.0947H50.297V96.4853C50.297 96.9249 50.4043 97.2622 50.619 97.4973C50.8439 97.7324 51.1608 97.85 51.5696 97.85C52.0296 97.85 52.413 97.7222 52.7196 97.4667L53.1796 98.5247C52.9548 98.7189 52.6839 98.862 52.367 98.954C52.0603 99.046 51.7383 99.092 51.401 99.092ZM47.445 92.0847V90.8733H52.6276V92.0847H47.445ZM59.9119 99.092C59.2168 99.092 58.6035 98.9642 58.0719 98.7087C57.5506 98.4531 57.1417 98.0647 56.8453 97.5433C56.559 97.0118 56.4159 96.3473 56.4159 95.55V90.8733H57.8879V95.3813C57.8879 96.1787 58.077 96.7767 58.4553 97.1753C58.8437 97.574 59.3855 97.7733 60.0806 97.7733C60.5917 97.7733 61.0364 97.6711 61.4146 97.4667C61.7928 97.252 62.0842 96.9453 62.2886 96.5467C62.493 96.1378 62.5953 95.6471 62.5953 95.0747V90.8733H64.0673V99H62.6719V96.8073L62.9019 97.39C62.6362 97.9318 62.2375 98.3509 61.7059 98.6473C61.1744 98.9438 60.5764 99.092 59.9119 99.092ZM71.7609 99.092C70.9738 99.092 70.2684 98.9182 69.6449 98.5707C69.0316 98.2231 68.546 97.7376 68.1882 97.114C67.8304 96.4904 67.6516 95.7647 67.6516 94.9367C67.6516 94.1087 67.8304 93.388 68.1882 92.7747C68.546 92.1511 69.0316 91.6656 69.6449 91.318C70.2684 90.9704 70.9738 90.7967 71.7609 90.7967C72.4458 90.7967 73.0642 90.95 73.6162 91.2567C74.1682 91.5633 74.6078 92.0233 74.9349 92.6367C75.2722 93.25 75.4409 94.0167 75.4409 94.9367C75.4409 95.8567 75.2773 96.6233 74.9502 97.2367C74.6333 97.85 74.1989 98.3151 73.6469 98.632C73.0949 98.9387 72.4662 99.092 71.7609 99.092ZM71.8836 97.804C72.3947 97.804 72.8547 97.6864 73.2636 97.4513C73.6827 97.2162 74.0098 96.884 74.2449 96.4547C74.4902 96.0151 74.6129 95.5091 74.6129 94.9367C74.6129 94.354 74.4902 93.8531 74.2449 93.434C74.0098 93.0047 73.6827 92.6724 73.2636 92.4373C72.8547 92.2022 72.3947 92.0847 71.8836 92.0847C71.3622 92.0847 70.8971 92.2022 70.4882 92.4373C70.0793 92.6724 69.7522 93.0047 69.5069 93.434C69.2616 93.8531 69.1389 94.354 69.1389 94.9367C69.1389 95.5091 69.2616 96.0151 69.5069 96.4547C69.7522 96.884 70.0793 97.2162 70.4882 97.4513C70.8971 97.6864 71.3622 97.804 71.8836 97.804ZM74.6589 99V96.8073L74.7509 94.9213L74.5976 93.0353V87.6227H76.0696V99H74.6589ZM80.388 99V90.8733H81.86V99H80.388ZM81.124 89.3093C80.8378 89.3093 80.5976 89.2173 80.4034 89.0333C80.2194 88.8493 80.1274 88.6244 80.1274 88.3587C80.1274 88.0827 80.2194 87.8527 80.4034 87.6687C80.5976 87.4847 80.8378 87.3927 81.124 87.3927C81.4103 87.3927 81.6454 87.4847 81.8294 87.6687C82.0236 87.8424 82.1207 88.0622 82.1207 88.328C82.1207 88.604 82.0287 88.8391 81.8447 89.0333C81.6607 89.2173 81.4205 89.3093 81.124 89.3093ZM89.6846 99.092C88.8668 99.092 88.141 98.9131 87.5073 98.5553C86.8735 98.1976 86.3726 97.7069 86.0046 97.0833C85.6366 96.4496 85.4526 95.734 85.4526 94.9367C85.4526 94.1291 85.6366 93.4136 86.0046 92.79C86.3726 92.1664 86.8735 91.6809 87.5073 91.3333C88.141 90.9756 88.8668 90.7967 89.6846 90.7967C90.4921 90.7967 91.2128 90.9756 91.8466 91.3333C92.4906 91.6809 92.9915 92.1664 93.3493 92.79C93.7173 93.4033 93.9013 94.1189 93.9013 94.9367C93.9013 95.7442 93.7173 96.4598 93.3493 97.0833C92.9915 97.7069 92.4906 98.1976 91.8466 98.5553C91.2128 98.9131 90.4921 99.092 89.6846 99.092ZM89.6846 97.804C90.2059 97.804 90.671 97.6864 91.0799 97.4513C91.499 97.2162 91.8261 96.884 92.0613 96.4547C92.2964 96.0151 92.4139 95.5091 92.4139 94.9367C92.4139 94.354 92.2964 93.8531 92.0613 93.434C91.8261 93.0047 91.499 92.6724 91.0799 92.4373C90.671 92.2022 90.2059 92.0847 89.6846 92.0847C89.1633 92.0847 88.6981 92.2022 88.2893 92.4373C87.8804 92.6724 87.5533 93.0047 87.3079 93.434C87.0626 93.8531 86.9399 94.354 86.9399 94.9367C86.9399 95.5091 87.0626 96.0151 87.3079 96.4547C87.5533 96.884 87.8804 97.2162 88.2893 97.4513C88.6981 97.6864 89.1633 97.804 89.6846 97.804Z" fill="#616161"/>
<ellipse cx="98.1905" cy="82.1395" rx="2.19048" ry="2.13953" fill="#616161"/>
</svg>
