<svg width="32" height="37" viewBox="0 0 32 37" fill="none" xmlns="http://www.w3.org/2000/svg">
<path d="M4.76649 36.8105C2.56 34.3189 1.11061 30.865 0.615817 26.9192C0.121027 22.9735 0.604901 18.7279 2.00151 14.761C3.39811 10.7941 5.63952 7.29881 8.42032 4.75138C11.2011 2.20395 14.386 0.728298 17.5411 0.525493C20.6962 0.322688 23.668 1.4026 26.0516 3.61807C28.4351 5.83354 30.1145 9.07682 30.8609 12.906C31.6073 16.7351 31.3844 20.9639 30.2225 25.0161C29.0607 29.0684 27.0164 32.7469 24.3683 35.5506L21.6177 30.742C23.4097 28.8448 24.793 26.3555 25.5793 23.6134C26.3655 20.8712 26.5163 18.0096 26.0112 15.4184C25.5062 12.8272 24.3697 10.6325 22.7568 9.13329C21.1438 7.63409 19.1328 6.90331 16.9978 7.04055C14.8627 7.17779 12.7075 8.17636 10.8257 9.90021C8.94394 11.6241 7.42718 13.9893 6.4821 16.6737C5.53702 19.3581 5.20958 22.2311 5.54441 24.9012C5.87923 27.5713 6.86003 29.9086 8.35317 31.5946L4.76649 36.8105Z" fill="#38A1FF"/>
</svg>
