<svg width="31" height="37" viewBox="0 0 31 37" fill="none" xmlns="http://www.w3.org/2000/svg">
<path d="M26.5987 36.8105C28.8052 34.3189 30.2546 30.865 30.7494 26.9192C31.2442 22.9735 30.7603 18.7279 29.3637 14.761C27.9671 10.7941 25.7257 7.29881 22.9449 4.75138C20.1641 2.20395 16.9792 0.728298 13.8241 0.525493C10.669 0.322688 7.69721 1.4026 5.31366 3.61807C2.9301 5.83354 1.25071 9.07682 0.50432 12.906C-0.242069 16.7351 -0.0191542 20.9639 1.14269 25.0161C2.30453 29.0684 4.3488 32.7469 6.99693 35.5506L9.74753 30.742C7.95554 28.8448 6.57219 26.3555 5.78597 23.6134C4.99975 20.8712 4.84891 18.0096 5.35399 15.4184C5.85907 12.8272 6.99551 10.6325 8.60846 9.13329C10.2214 7.63409 12.2324 6.90331 14.3675 7.04055C16.5025 7.17779 18.6578 8.17636 20.5395 9.90021C22.4213 11.6241 23.938 13.9893 24.8831 16.6737C25.8282 19.3581 26.1556 22.2311 25.8208 24.9012C25.486 27.5713 24.5052 29.9086 23.0121 31.5946L26.5987 36.8105Z" fill="#38A1FF"/>
</svg>
