<svg width="206" height="84" viewBox="0 0 206 84" fill="none" xmlns="http://www.w3.org/2000/svg">
<path d="M261.931 -64.2814C258.366 -92.1446 245.884 -119.085 224.485 -140.485C218.797 -146.173 212.717 -151.231 206.333 -155.658V-64.2814H261.931Z" fill="#FFC754"/>
<path fill-rule="evenodd" clip-rule="evenodd" d="M199.284 -50.1825H262.973C263.07 -45.3909 262.907 -40.595 262.483 -35.8179C261.872 -35.9909 261.227 -36.0835 260.56 -36.0835L152.106 -36.0835C148.213 -36.0835 145.057 -32.9273 145.057 -29.034V83.3036C140.371 83.7864 135.664 84.0182 130.958 83.9989V-0.836075C130.958 -4.72939 127.802 -7.88556 123.908 -7.88556H103.302V-44.7598C103.302 -48.6531 100.146 -51.8093 96.2526 -51.8093C92.3593 -51.8093 89.2031 -48.6531 89.2031 -44.7598V-3.55214C88.8538 -2.71622 88.6608 -1.79868 88.6608 -0.836075C88.6608 0.126541 88.8538 1.04408 89.2031 1.88L89.2031 77.0429C70.6809 70.7681 53.2795 60.2486 38.5155 45.4845L38.4103 45.3792L38.2783 45.2468L38.2299 45.1981L38.2299 -49.0979C38.2299 -52.9912 35.0737 -56.1474 31.1804 -56.1474C27.2871 -56.1474 24.1309 -52.9912 24.1309 -49.0979L24.1309 28.4585C-1.3899 -7.52461 -6.66764 -53.4632 8.29771 -93.5639H163.494V-79.4649L124.451 -79.4649C120.557 -79.4649 117.401 -76.3088 117.401 -72.4155C117.401 -68.5221 120.557 -65.366 124.451 -65.366L163.494 -65.366V-59.1299C163.494 -55.0868 166.771 -51.8093 170.814 -51.8093C174.857 -51.8093 178.135 -55.0868 178.135 -59.1299V-93.5639H192.234V-57.2319C192.234 -53.3386 195.39 -50.1825 199.284 -50.1825ZM62.0897 -79.4649C61.5298 -79.4649 60.9851 -79.3997 60.4629 -79.2763C59.9406 -79.3997 59.396 -79.4649 58.8361 -79.4649C54.9428 -79.4649 51.7866 -76.3088 51.7866 -72.4155L51.7866 43.0876C51.7866 46.981 54.9428 50.1371 58.8361 50.1371C62.7294 50.1371 65.8856 46.981 65.8856 43.0877L65.8856 -65.366H96.2526C100.146 -65.366 103.302 -68.5221 103.302 -72.4155C103.302 -76.3088 100.146 -79.4649 96.2526 -79.4649H62.0897Z" fill="#FFC754"/>
<path d="M103.302 6.21341L103.302 80.9577C107.786 81.9377 112.312 82.6808 116.859 83.1873L116.859 6.21341H103.302Z" fill="#FFC754"/>
<path d="M159.156 81.075L159.156 -21.9845L260.515 -21.9845C255.649 2.73657 243.639 26.33 224.485 45.4845C213.384 56.5854 200.792 65.2867 187.354 71.5884V6.21341H245.919C249.812 6.21341 252.968 3.05727 252.968 -0.83606C252.968 -4.72939 249.812 -7.88556 245.919 -7.88556H180.304C176.411 -7.88556 173.255 -4.72939 173.255 -0.836075V71.8279C173.255 73.6643 173.957 75.3367 175.107 76.5912C169.872 78.427 164.543 79.9216 159.156 81.075Z" fill="#FFC754"/>
<path d="M192.234 -107.663H14.53C19.0482 -116.442 24.6203 -124.82 31.2461 -132.607H175.966C179.859 -132.607 183.015 -135.763 183.015 -139.657C183.015 -139.747 183.014 -139.838 183.01 -139.928C183.014 -140.018 183.015 -140.108 183.015 -140.199V-168.527C186.132 -167.202 189.207 -165.751 192.234 -164.174V-107.663Z" fill="#FFC754"/>
<path d="M168.916 -173.591C126.934 -186.008 79.9736 -177.047 45.1763 -146.706H168.916V-173.591Z" fill="#FFC754"/>
</svg>
