<svg width="44" height="44" viewBox="0 0 44 44" fill="none" xmlns="http://www.w3.org/2000/svg">
<path d="M23.41 22.0002L29.71 15.7102C29.8983 15.5219 30.0041 15.2665 30.0041 15.0002C30.0041 14.7339 29.8983 14.4785 29.71 14.2902C29.5217 14.1019 29.2663 13.9961 29 13.9961C28.7337 13.9961 28.4783 14.1019 28.29 14.2902L22 20.5902L15.71 14.2902C15.5217 14.1019 15.2663 13.9961 15 13.9961C14.7337 13.9961 14.4783 14.1019 14.29 14.2902C14.1017 14.4785 13.9959 14.7339 13.9959 15.0002C13.9959 15.2665 14.1017 15.5219 14.29 15.7102L20.59 22.0002L14.29 28.2902C14.1963 28.3831 14.1219 28.4937 14.0711 28.6156C14.0203 28.7375 13.9942 28.8682 13.9942 29.0002C13.9942 29.1322 14.0203 29.2629 14.0711 29.3848C14.1219 29.5066 14.1963 29.6172 14.29 29.7102C14.383 29.8039 14.4936 29.8783 14.6154 29.9291C14.7373 29.9798 14.868 30.006 15 30.006C15.132 30.006 15.2627 29.9798 15.3846 29.9291C15.5064 29.8783 15.617 29.8039 15.71 29.7102L22 23.4102L28.29 29.7102C28.383 29.8039 28.4936 29.8783 28.6154 29.9291C28.7373 29.9798 28.868 30.006 29 30.006C29.132 30.006 29.2627 29.9798 29.3846 29.9291C29.5064 29.8783 29.617 29.8039 29.71 29.7102C29.8037 29.6172 29.8781 29.5066 29.9289 29.3848C29.9797 29.2629 30.0058 29.1322 30.0058 29.0002C30.0058 28.8682 29.9797 28.7375 29.9289 28.6156C29.8781 28.4937 29.8037 28.3831 29.71 28.2902L23.41 22.0002Z" fill="black"/>
</svg>
