<svg width="18" height="18" viewBox="0 0 18 18" fill="none" xmlns="http://www.w3.org/2000/svg">
<path d="M10.41 9.00019L16.71 2.71019C16.8983 2.52188 17.0041 2.26649 17.0041 2.00019C17.0041 1.73388 16.8983 1.47849 16.71 1.29019C16.5217 1.10188 16.2663 0.996094 16 0.996094C15.7337 0.996094 15.4783 1.10188 15.29 1.29019L9 7.59019L2.71 1.29019C2.5217 1.10188 2.2663 0.996094 2 0.996094C1.7337 0.996094 1.4783 1.10188 1.29 1.29019C1.1017 1.47849 0.995909 1.73388 0.995908 2.00019C0.995908 2.26649 1.1017 2.52188 1.29 2.71019L7.59 9.00019L1.29 15.2902C1.19627 15.3831 1.12188 15.4937 1.07111 15.6156C1.02034 15.7375 0.994202 15.8682 0.994202 16.0002C0.994202 16.1322 1.02034 16.2629 1.07111 16.3848C1.12188 16.5066 1.19627 16.6172 1.29 16.7102C1.38296 16.8039 1.49356 16.8783 1.61542 16.9291C1.73728 16.9798 1.86799 17.006 2 17.006C2.13201 17.006 2.26272 16.9798 2.38458 16.9291C2.50644 16.8783 2.61704 16.8039 2.71 16.7102L9 10.4102L15.29 16.7102C15.383 16.8039 15.4936 16.8783 15.6154 16.9291C15.7373 16.9798 15.868 17.006 16 17.006C16.132 17.006 16.2627 16.9798 16.3846 16.9291C16.5064 16.8783 16.617 16.8039 16.71 16.7102C16.8037 16.6172 16.8781 16.5066 16.9289 16.3848C16.9797 16.2629 17.0058 16.1322 17.0058 16.0002C17.0058 15.8682 16.9797 15.7375 16.9289 15.6156C16.8781 15.4937 16.8037 15.3831 16.71 15.2902L10.41 9.00019Z" fill="black"/>
</svg>
