<svg width="48" height="57" viewBox="0 0 48 57" fill="none" xmlns="http://www.w3.org/2000/svg">
<path d="M19.5 39C23.3567 39 27.1269 37.8563 30.3336 35.7137C33.5404 33.571 36.0397 30.5255 37.5157 26.9623C38.9916 23.3992 39.3777 19.4784 38.6253 15.6957C37.8729 11.9131 36.0157 8.43855 33.2886 5.71143C30.5615 2.9843 27.0869 1.12711 23.3043 0.374695C19.5216 -0.377716 15.6008 0.00844955 12.0377 1.48436C8.47452 2.96027 5.42903 5.45963 3.28634 8.66639C1.14365 11.8731 3.37167e-07 15.6433 0 19.5L6.74815 19.5C6.74815 16.9779 7.49603 14.5125 8.89722 12.4155C10.2984 10.3184 12.29 8.68399 14.6201 7.71883C16.9502 6.75367 19.5142 6.50114 21.9878 6.99318C24.4614 7.48521 26.7335 8.69971 28.5169 10.4831C30.3003 12.2665 31.5148 14.5386 32.0068 17.0122C32.4989 19.4859 32.2463 22.0498 31.2812 24.3799C30.316 26.71 28.6816 28.7016 26.5846 30.1028C24.4875 31.504 22.0221 32.2519 19.5 32.2519V39Z" fill="#6852D9"/>
<path d="M24.1733 17.5541C20.3812 18.2571 16.8827 20.0688 14.1202 22.7601C11.3577 25.4514 9.45534 28.9014 8.65362 32.6739C7.8519 36.4464 8.18685 40.3719 9.61613 43.954C11.0454 47.5361 13.5048 50.6139 16.6833 52.7983C19.8618 54.9827 23.6167 56.1754 27.4731 56.2258C31.3295 56.2761 35.1143 55.1818 38.3487 53.0811C41.5832 50.9805 44.1221 47.9679 45.6444 44.4243C47.1667 40.8807 47.604 36.9653 46.901 33.1731L40.2659 34.4031C40.7256 36.883 40.4396 39.4434 39.4441 41.7607C38.4486 44.078 36.7883 46.0481 34.6732 47.4218C32.5581 48.7955 30.0831 49.5111 27.5612 49.4782C25.0393 49.4453 22.5839 48.6653 20.5053 47.2368C18.4267 45.8084 16.8184 43.7957 15.8838 41.4532C14.9491 39.1107 14.7301 36.5436 15.2544 34.0766C15.7786 31.6097 17.0227 29.3535 18.8292 27.5936C20.6357 25.8336 22.9235 24.6489 25.4033 24.1892L24.1733 17.5541Z" fill="#6852D9"/>
</svg>
