<svg width="105" height="105" viewBox="0 0 105 105" fill="none" xmlns="http://www.w3.org/2000/svg">
<mask id="path-1-inside-1_882_70" fill="white">
<path d="M105 52.5C105 81.4949 81.4949 105 52.5 105C23.5051 105 0 81.4949 0 52.5C0 23.5051 23.5051 0 52.5 0C81.4949 0 105 23.5051 105 52.5ZM16.2921 52.5C16.2921 72.4971 32.5029 88.7079 52.5 88.7079C72.4971 88.7079 88.7079 72.4971 88.7079 52.5C88.7079 32.5029 72.4971 16.2921 52.5 16.2921C32.5029 16.2921 16.2921 32.5029 16.2921 52.5Z"/>
</mask>
<path d="M105 52.5C105 81.4949 81.4949 105 52.5 105C23.5051 105 0 81.4949 0 52.5C0 23.5051 23.5051 0 52.5 0C81.4949 0 105 23.5051 105 52.5ZM16.2921 52.5C16.2921 72.4971 32.5029 88.7079 52.5 88.7079C72.4971 88.7079 88.7079 72.4971 88.7079 52.5C88.7079 32.5029 72.4971 16.2921 52.5 16.2921C32.5029 16.2921 16.2921 32.5029 16.2921 52.5Z" stroke="#F5B633" stroke-width="6" mask="url(#path-1-inside-1_882_70)"/>
</svg>
