<svg width="43" height="50" viewBox="0 0 43 50" fill="none" xmlns="http://www.w3.org/2000/svg">
<path d="M6.65494 49.4695C3.62684 46.1073 1.62543 41.4573 0.923443 36.1532C0.221451 30.849 0.853014 25.1487 2.73207 19.8289C4.61113 14.5091 7.6463 9.82863 11.424 6.42518C15.2017 3.02173 19.5382 1.06086 23.8426 0.809776C28.147 0.558689 32.2099 2.02959 35.4778 5.02205C38.7456 8.01452 41.0595 12.383 42.1041 17.5322C43.1486 22.6815 42.8731 28.3611 41.315 33.797C39.7569 39.233 36.992 44.161 33.3971 47.9096L29.6107 41.431C32.0434 38.8944 33.9144 35.5596 34.9688 31.8811C36.0231 28.2025 36.2096 24.3592 35.5027 20.8747C34.7959 17.3902 33.2301 14.434 31.0187 12.409C28.8074 10.384 26.058 9.38869 23.1452 9.5586C20.2324 9.72851 17.2979 11.0554 14.7415 13.3585C12.1852 15.6616 10.1313 18.8289 8.85973 22.4288C7.58817 26.0287 7.1608 29.8862 7.63583 33.4755C8.11087 37.0648 9.46522 40.2114 11.5143 42.4866L6.65494 49.4695Z" fill="#38A1FF"/>
</svg>
