<svg width="326" height="341" viewBox="0 0 326 341" fill="none" xmlns="http://www.w3.org/2000/svg">
<path d="M13.5 173.674C13.5 77.7565 91.2565 0 187.174 0H326V331.484C326 336.739 321.739 341 316.484 341H13.5V173.674Z" fill="#FFC754"/>
<path d="M0 279.761C0 253.936 20.9357 233 46.7612 233H127V324H0V279.761Z" fill="#6197FF"/>
<path d="M310 277.239C310 303.064 289.064 324 263.239 324L218 324L218 233L310 233L310 277.239Z" fill="#6852D9"/>
<path d="M264.761 142C238.936 142 218 121.064 218 95.2388L218 51L310 51L310 142L264.761 142Z" fill="#6197FF"/>
<rect x="43" y="142" width="84" height="91" fill="#6852D9"/>
<path d="M127 142H167.487C195.384 142 218 164.616 218 192.513V233H177.513C149.616 233 127 210.384 127 182.487V142Z" fill="white"/>
<path d="M43 51H81.5C106.629 51 127 71.371 127 96.5C127 121.629 106.629 142 81.5 142H43V51Z" fill="#EE6881"/>
<ellipse cx="264" cy="187.5" rx="46" ry="45.5" fill="#D9D9D9"/>
<circle cx="172.5" cy="278.5" r="45.5" fill="#D9D9D9"/>
<path d="M64.8223 108.663C67.1756 111.014 70.1738 112.615 73.4379 113.264C76.702 113.913 80.0854 113.58 83.1601 112.307C86.2348 111.035 88.8628 108.88 90.7118 106.116C92.5607 103.352 93.5476 100.102 93.5476 96.7771C93.5476 93.4524 92.5607 90.2024 90.7118 87.438C88.8628 84.6736 86.2348 82.5191 83.1601 81.2468C80.0854 79.9745 76.702 79.6416 73.4379 80.2902C70.1738 80.9388 67.1756 82.5398 64.8223 84.8907C64.8223 84.8907 76.7207 87.438 76.7207 96.7771C76.7207 106.116 64.8223 108.663 64.8223 108.663Z" fill="white"/>
</svg>
