<svg width="32" height="32" viewBox="0 0 32 32" fill="none" xmlns="http://www.w3.org/2000/svg">
<path fill-rule="evenodd" clip-rule="evenodd" d="M4.8 32C3.52696 32 2.30606 31.3679 1.40589 30.2426C0.505713 29.1174 0 27.5913 0 26V6C0 4.4087 0.505713 2.88258 1.40589 1.75736C2.30606 0.632141 3.52696 0 4.8 0H27.2C28.473 0 29.6939 0.632141 30.5941 1.75736C31.4943 2.88258 32 4.4087 32 6V26C32 27.5913 31.4943 29.1174 30.5941 30.2426C29.6939 31.3679 28.473 32 27.2 32H4.8ZM9 8.44C8.83702 8.26604 8.64773 8.13477 8.44338 8.054C8.23903 7.97324 8.02379 7.94461 7.81042 7.96983C7.59705 7.99504 7.38991 8.07359 7.20129 8.20079C7.01267 8.328 6.84642 8.50128 6.7124 8.71034C6.57839 8.9194 6.47934 9.15999 6.42114 9.41783C6.36294 9.67566 6.34677 9.94548 6.37359 10.2113C6.40042 10.4771 6.46969 10.7334 6.57729 10.9651C6.6849 11.1968 6.82865 11.3991 7 11.56L13 17.562C13.8513 18.414 14.9094 18.8783 16 18.8783C17.0906 18.8783 18.1487 18.414 19 17.562L25 11.562C25.1641 11.3978 25.3007 11.1949 25.4021 10.9647C25.5034 10.7346 25.5675 10.4817 25.5907 10.2206C25.6139 9.9595 25.5957 9.69523 25.5372 9.4429C25.4786 9.19057 25.3809 8.95512 25.2496 8.75C25.1183 8.54488 24.9559 8.37409 24.7718 8.2474C24.5877 8.12071 24.3854 8.04059 24.1765 8.01162C23.9676 7.98264 23.7562 8.00539 23.5543 8.07855C23.3525 8.15171 23.1641 8.27385 23 8.438L17 14.438C16.7162 14.722 16.3635 14.8768 16 14.8768C15.6365 14.8768 15.2838 14.722 15 14.438L9 8.438V8.44Z" fill="black"/>
</svg>
