<svg width="379" height="154" viewBox="0 0 379 154" fill="none" xmlns="http://www.w3.org/2000/svg">
<path d="M483.529 -120C476.955 -171.383 453.937 -221.063 414.473 -260.527C403.984 -271.016 392.773 -280.343 381 -288.509V-120H483.529Z" fill="#FFC754"/>
<path fill-rule="evenodd" clip-rule="evenodd" d="M368 -94H485.45C485.629 -85.1638 485.328 -76.3197 484.547 -67.5102C483.419 -67.8292 482.23 -68 481 -68L281 -68C273.82 -68 268 -62.1797 268 -55V152.162C259.359 153.053 250.678 153.48 242 153.445L242 -3C242 -10.1797 236.18 -16 229 -16H191V-84C191 -91.1797 185.18 -97 178 -97C170.82 -97 165 -91.1797 165 -84V-8.00873C164.356 -6.46719 164 -4.77515 164 -3C164 -1.22485 164.356 0.467194 165 2.00873L165 140.617C130.843 129.046 98.7531 109.647 71.5266 82.4201L71.3326 82.226L71.0893 81.9817L71 81.8919L71 -92C71 -99.1797 65.1797 -105 58 -105C50.8203 -105 45 -99.1797 45 -92L45 51.0223C-2.06311 -15.3344 -11.7958 -100.05 15.8019 -174H302V-148L230 -148C222.82 -148 217 -142.18 217 -135C217 -127.82 222.82 -122 230 -122L302 -122V-110.5C302 -103.044 308.044 -97 315.5 -97C322.956 -97 329 -103.044 329 -110.5V-174H355V-107C355 -99.8203 360.82 -94 368 -94ZM115 -148C113.967 -148 112.963 -147.88 112 -147.652C111.037 -147.88 110.033 -148 109 -148C101.82 -148 96 -142.18 96 -135L96 78C96 85.1797 101.82 91 109 91C116.18 91 122 85.1797 122 78L122 -122H178C185.18 -122 191 -127.82 191 -135C191 -142.18 185.18 -148 178 -148H115Z" fill="#FFC754"/>
<path d="M191 10L191 147.836C199.269 149.644 207.615 151.014 216 151.948L216 10H191Z" fill="#FFC754"/>
<path d="M294 148.053L294 -42L480.917 -42C471.944 3.58832 449.796 47.0972 414.473 82.4201C394.002 102.891 370.781 118.937 346 130.558V10H454C461.18 10 467 4.17972 467 -2.99997C467 -10.1797 461.18 -16 454 -16H333C325.82 -16 320 -10.1797 320 -3V131C320 134.387 321.295 137.471 323.417 139.784C313.761 143.169 303.934 145.926 294 148.053Z" fill="#FFC754"/>
<path d="M355 -200H27.2948C35.627 -216.19 45.9024 -231.639 58.1211 -246H325C332.18 -246 338 -251.82 338 -259C338 -259.167 337.997 -259.334 337.991 -259.5C337.997 -259.666 338 -259.833 338 -260V-312.24C343.747 -309.796 349.418 -307.121 355 -304.213V-200Z" fill="#FFC754"/>
<path d="M312 -321.578C234.58 -344.477 147.98 -327.951 83.81 -272H312V-321.578Z" fill="#FFC754"/>
</svg>
